<svg width="100" height="100" viewBox="0 0 100 100" fill="none" xmlns="http://www.w3.org/2000/svg">
<path d="M95.0609 36.9305C96.06 38.3367 97.0035 39.6648 97.8164 40.4787C97.9812 40.6435 98.2048 40.7361 98.4379 40.7361C98.671 40.7361 98.8945 40.6435 99.0594 40.4787C99.2242 40.3139 99.3168 40.0903 99.3168 39.8572C99.3168 39.6241 99.2242 39.4006 99.0594 39.2357C98.3512 38.5275 97.4492 37.2574 96.4941 35.9127C95.5588 34.5957 94.5381 33.1588 93.4807 31.9336H98.4379C98.671 31.9336 98.8945 31.841 99.0594 31.6762C99.2242 31.5113 99.3168 31.2878 99.3168 31.0547C99.3168 30.8216 99.2242 30.598 99.0594 30.4332C98.8945 30.2684 98.671 30.1758 98.4379 30.1758H1.56133C1.32823 30.1758 1.10467 30.2684 0.939846 30.4332C0.775019 30.598 0.682421 30.8216 0.682421 31.0547C0.682421 31.2878 0.775019 31.5113 0.939846 31.6762C1.10467 31.841 1.32823 31.9336 1.56133 31.9336H15.7826C10.5395 32.9516 4.48144 34.2174 1.3039 35.1953C1.19132 35.2273 1.08625 35.2814 0.994863 35.3545C0.903477 35.4276 0.827614 35.5183 0.771726 35.6211C0.715837 35.7239 0.681049 35.8369 0.669402 35.9533C0.657755 36.0698 0.669484 36.1874 0.703901 36.2993C0.738318 36.4111 0.794729 36.515 0.869825 36.6048C0.944921 36.6945 1.03719 36.7684 1.14122 36.822C1.24524 36.8756 1.35893 36.908 1.47561 36.9171C1.5923 36.9262 1.70962 36.9119 1.8207 36.875C6.56504 35.4154 18.8576 33.0889 25.434 31.9336H28.9578C18.5102 34.5541 2.22402 38.9496 1.33164 39.1906C1.21884 39.2194 1.11289 39.2704 1.01994 39.3405C0.926995 39.4106 0.848904 39.4985 0.790203 39.599C0.731503 39.6996 0.693363 39.8108 0.677998 39.9262C0.662634 40.0416 0.670351 40.1589 0.700701 40.2713C0.731052 40.3837 0.783431 40.4889 0.854797 40.5809C0.926164 40.6729 1.01509 40.7498 1.11642 40.8071C1.21776 40.8645 1.32947 40.9011 1.44507 40.9149C1.56067 40.9287 1.67787 40.9194 1.78984 40.8875C2.07383 40.8109 30.1334 33.2379 36.5799 31.9336H42.7713C39.4404 33.2291 35.317 34.8371 34.623 35.1262C34.2479 35.2824 33.5787 35.623 32.6525 36.0945C30.5125 37.1838 27.2783 38.8301 24.7168 39.7018C21.0213 40.9598 2.03164 48.8529 1.225 49.1885C1.11739 49.2321 1.01948 49.2965 0.936926 49.3782C0.854372 49.4598 0.788812 49.557 0.74403 49.6641C0.699248 49.7712 0.676132 49.8861 0.676018 50.0022C0.675905 50.1183 0.698795 50.2333 0.743366 50.3405C0.787938 50.4477 0.853308 50.545 0.935701 50.6268C1.01809 50.7086 1.11588 50.7733 1.2234 50.8171C1.33093 50.8609 1.44606 50.8829 1.56216 50.882C1.67826 50.881 1.79301 50.8571 1.8998 50.8115C2.09668 50.7297 21.6424 42.6053 25.2836 41.366C27.9643 40.4537 31.2656 38.7732 33.4504 37.6611C34.3084 37.2242 34.9861 36.8799 35.2992 36.7488C36.3744 36.3008 46.2703 32.4598 47.626 31.9336H48.7955C41.5621 34.6863 35.3357 38.0156 30.9486 40.3621C28.5746 41.6316 26.6992 42.635 25.6895 42.9846C22.2967 44.159 2.04316 53.8086 1.18262 54.2188C1.07842 54.2684 0.985023 54.3381 0.907763 54.4239C0.830504 54.5096 0.770894 54.6098 0.732336 54.7186C0.693778 54.8274 0.677027 54.9427 0.68304 55.058C0.689053 55.1733 0.717713 55.2862 0.767381 55.3904C0.81705 55.4946 0.886756 55.588 0.972519 55.6653C1.05828 55.7425 1.15842 55.8021 1.26722 55.8407C1.37602 55.8793 1.49135 55.896 1.60663 55.89C1.7219 55.884 1.83486 55.8553 1.93906 55.8057C2.14883 55.7055 22.9637 45.7875 26.2645 44.6449C27.4057 44.2498 29.2395 43.2689 31.7775 41.9105C37.0482 39.0912 45.0016 34.8381 54.1102 31.9318H57.3568C55.0326 33.5887 51.4607 36.1102 49.5283 37.3434C48.173 38.2082 47.0189 39.3086 45.9029 40.3727C44.4709 41.7381 43.1186 43.0289 41.6311 43.4959C38.634 44.4387 32.5686 49.459 32.1938 49.7707C26.6664 54.1178 20.3531 58.9234 19.5309 59.2732C18.2002 59.8057 2.85117 69.0881 1.10566 70.1447C0.906232 70.2654 0.762916 70.4604 0.707241 70.6868C0.651566 70.9131 0.688093 71.1523 0.808788 71.3518C0.929482 71.5512 1.12446 71.6945 1.35082 71.7502C1.57718 71.8059 1.81639 71.7693 2.01582 71.6486C8.82226 67.5287 19.2773 61.268 20.1836 60.9064C21.5348 60.366 31.3385 52.6809 33.29 51.1459L33.3096 51.1303C35.0111 49.7125 39.9182 45.8785 42.159 45.1732C44.0359 44.5828 45.5322 43.1561 47.1162 41.6457C48.1709 40.6395 49.2627 39.599 50.4742 38.8258C53.2465 37.0568 59.1217 32.8361 60.3766 31.9326H61.4014C57.666 34.8871 49.8438 41.1059 47.8914 42.9078C46.3426 44.3377 40.0984 49.2945 34.5875 53.6684C31.2611 56.3086 28.1191 58.8025 26.5906 60.0631C18.0699 67.0898 1.21133 79.4402 1.0416 79.5643C0.947627 79.6321 0.868002 79.7179 0.807308 79.8166C0.746614 79.9154 0.706051 80.0251 0.687953 80.1396C0.669855 80.2541 0.67458 80.371 0.701856 80.4837C0.729132 80.5963 0.778421 80.7025 0.846884 80.796C0.915347 80.8895 1.00163 80.9686 1.10077 81.0286C1.19991 81.0887 1.30995 81.1285 1.42455 81.1459C1.53915 81.1632 1.65605 81.1577 1.76852 81.1297C1.88099 81.1017 1.98681 81.0517 2.07988 80.9826C2.2498 80.8584 19.149 68.4785 27.708 61.4203C29.224 60.1703 32.3596 57.6812 35.6793 55.0461C41.2133 50.6535 47.4857 45.6748 49.0828 44.2006C51.3789 42.0811 62.4658 33.3297 64.2373 31.9336H66.9912C65.6262 33.457 64.1006 35.1193 62.509 36.8537C59.4906 40.1428 56.3695 43.5436 53.7564 46.6328C52.7389 47.8357 51.8119 48.9727 50.9156 50.0719C48.9363 52.499 46.8896 55.0088 43.6924 58.4508C40.7104 61.6615 38.5705 64.8211 36.6824 67.6086C35.3887 69.5186 34.2715 71.1682 33.1297 72.4656C30.823 75.0869 28.7857 78.0803 26.8156 80.9752C25.0566 83.5598 23.2381 86.232 21.1982 88.6969C18.5029 91.9549 14.1777 97.8738 14.1342 97.9332C14.0661 98.0264 14.0171 98.1322 13.9899 98.2443C13.9627 98.3565 13.9579 98.473 13.9757 98.587C13.9935 98.7011 14.0335 98.8105 14.0936 98.909C14.1537 99.0076 14.2326 99.0934 14.3259 99.1614C14.4191 99.2295 14.5248 99.2785 14.637 99.3057C14.7492 99.3329 14.8656 99.3377 14.9797 99.3199C15.0937 99.3021 15.2032 99.2621 15.3017 99.202C15.4003 99.1419 15.486 99.063 15.5541 98.9697C15.5971 98.9111 19.89 93.0342 22.5525 89.8176C24.6449 87.2893 26.4871 84.582 28.2687 81.9643C30.298 78.9826 32.2141 76.1662 34.4492 73.627C35.6646 72.2459 36.8107 70.5537 38.1379 68.5943C39.9902 65.86 42.09 62.759 44.9803 59.6471C48.2162 56.1629 50.2811 53.6314 52.2777 51.1822C53.1695 50.0885 54.0912 48.9582 55.0986 47.7676C57.6887 44.7053 60.7975 41.3178 63.8041 38.041C65.818 35.8465 67.7225 33.7705 69.3424 31.9322H70.0754C68.2715 35.3256 65.5807 38.0895 63.3701 40.3559C61.6633 42.1061 60.315 43.4883 59.7457 44.7555C59.2193 45.9273 56.9445 48.5488 54.7445 51.0846C51.6377 54.6658 48.7029 58.0486 48.1777 59.917C47.6074 61.9451 43.2754 67.393 40.9469 70.3199C39.8846 71.6557 39.117 72.6207 38.8375 73.0646C36.9309 76.0854 35.0865 78.9389 33.4594 81.4566C31.2648 84.8518 29.5316 87.5334 28.7283 88.9541C25.44 94.7689 23.5549 97.973 23.5361 98.0049C23.4179 98.2058 23.3843 98.4454 23.4427 98.6711C23.5011 98.8967 23.6468 99.0899 23.8477 99.2082C24.0485 99.3265 24.2882 99.3601 24.5138 99.3017C24.7395 99.2432 24.9327 99.0976 25.051 98.8967C25.0705 98.8648 26.9615 95.6492 30.2584 89.8191C31.0361 88.4437 32.757 85.7814 34.9355 82.4107C36.5652 79.8895 38.4121 77.0316 40.324 74.0029C40.5531 73.6398 41.3734 72.6084 42.3232 71.4141C45.8053 67.0361 49.2568 62.5789 49.8707 60.3928C50.2896 58.9033 53.4965 55.2068 56.0732 52.2365C58.5652 49.3639 60.7174 46.883 61.3496 45.4762C61.7916 44.4928 63.1074 43.1445 64.6293 41.5832C67.0939 39.0561 70.1332 35.934 72.0437 31.9322H74.0713C73.5623 33.4965 73.1543 34.9689 72.7289 36.5082C71.9757 39.3817 71.0768 42.2149 70.0357 44.9971C69.5748 46.2094 69.1162 47.502 68.6311 48.8703C67.4854 52.1006 66.1867 55.7619 64.2875 59.99C61.8842 65.34 57.8748 81.5777 57.073 88.1346C56.9638 88.9927 56.7386 89.8321 56.4035 90.6297C55.0437 93.9109 54.0687 98.0766 54.0279 98.2523C54.0009 98.3651 53.9964 98.482 54.0148 98.5965C54.0332 98.711 54.074 98.8207 54.135 98.9193C54.1959 99.0179 54.2757 99.1035 54.3699 99.1711C54.4641 99.2387 54.5707 99.2871 54.6836 99.3133C54.7965 99.3396 54.9135 99.3432 55.0278 99.3241C55.1422 99.3049 55.2516 99.2633 55.3498 99.2017C55.448 99.1401 55.533 99.0597 55.6 98.965C55.667 98.8704 55.7146 98.7635 55.74 98.6504C55.7498 98.6086 56.724 94.448 58.0275 91.3027C58.4235 90.3581 58.6894 89.364 58.818 88.3479C59.607 81.8961 63.5383 65.9484 65.8906 60.7111C67.8193 56.4178 69.1307 52.7207 70.2875 49.4588C70.7695 48.0998 71.225 46.8164 71.6787 45.6227C72.7397 42.7892 73.6558 39.9036 74.4234 36.977C74.8922 35.2801 75.3389 33.6666 75.9227 31.933H76.6678C75.0869 37.8166 74.0029 41.9861 73.2684 45.0066C72.7361 47.1941 71.8281 50.1074 70.7766 53.4813C68.2611 61.5518 64.8162 72.6049 64.2121 81.7039C63.6723 89.8137 61.8559 98.1805 61.8363 98.2641C61.8116 98.3768 61.8094 98.4933 61.8297 98.6069C61.85 98.7206 61.8925 98.8291 61.9548 98.9263C62.0171 99.0235 62.0979 99.1074 62.1926 99.1734C62.2873 99.2394 62.3941 99.286 62.5068 99.3107C62.6196 99.3354 62.7361 99.3377 62.8497 99.3174C62.9633 99.297 63.0718 99.2545 63.169 99.1923C63.2662 99.13 63.3502 99.0492 63.4162 98.9545C63.4821 98.8598 63.5288 98.753 63.5535 98.6402C63.5721 98.5555 65.4172 90.0646 65.9644 81.8215C66.5549 72.9297 69.9641 61.9916 72.4533 54.0049C73.5137 50.6023 74.4295 47.6641 74.9746 45.4225C75.7248 42.3387 76.8426 38.0451 78.4867 31.9336H80.709C80.9473 34.4656 81.6877 42.1393 82.0555 43.6631C83.1135 48.0488 83.6908 52.0641 84.2 55.6066C84.5555 58.0783 84.8625 60.2131 85.2742 62.1012C85.5008 63.142 85.7541 64.1303 86.0225 65.1766C86.9451 68.7762 87.9912 72.8561 88.2846 80.7223C88.5189 87.0063 89.8029 91.9389 90.8346 95.9023C91.09 96.8832 91.3312 97.81 91.5268 98.651C91.5519 98.7644 91.5993 98.8716 91.6662 98.9666C91.7331 99.0616 91.8181 99.1423 91.9164 99.2042C92.0147 99.2661 92.1243 99.3079 92.2388 99.3272C92.3533 99.3465 92.4706 99.3429 92.5837 99.3166C92.6968 99.2903 92.8036 99.2418 92.8979 99.174C92.9922 99.1062 93.0722 99.0204 93.1331 98.9215C93.194 98.8226 93.2347 98.7126 93.2529 98.5979C93.271 98.4832 93.2663 98.366 93.2389 98.2531C93.0381 97.3895 92.7941 96.452 92.5357 95.4602C91.5254 91.5795 90.2684 86.7492 90.0412 80.6576C89.7408 72.6029 88.6699 68.426 87.725 64.7408C87.4609 63.7105 87.2113 62.7373 86.9914 61.7277C86.5938 59.9012 86.291 57.7955 85.9404 55.3572C85.4256 51.7764 84.8422 47.7178 83.7645 43.2518C83.4621 41.9977 82.7984 35.3635 82.4754 31.9344H83.3232C83.9186 35.0383 86.2797 47.3262 86.9018 50.2C87.0703 50.9785 87.333 52.2225 87.6477 53.7137C88.6828 58.616 90.2453 66.0229 90.9484 68.6523C91.3021 69.975 91.7562 72.0117 92.2375 74.1668C92.9992 77.5775 93.7852 81.1045 94.3586 82.6613C95.2543 85.0926 97.5812 92.1639 97.6039 92.235C97.6789 92.4536 97.837 92.634 98.044 92.7369C98.251 92.8398 98.4902 92.8571 98.7098 92.7849C98.9295 92.7126 99.1118 92.5568 99.2173 92.3511C99.3228 92.1454 99.3431 91.9064 99.2736 91.6859C99.1777 91.3943 96.9145 84.5141 96.0082 82.0537C95.4752 80.6072 94.6668 76.9822 93.9531 73.784C93.4682 71.61 93.0102 69.5564 92.6473 68.198C91.9566 65.6139 90.399 58.2338 89.3684 53.3504C89.0527 51.8553 88.7896 50.608 88.6205 49.8275C88.0223 47.0646 85.7963 35.4902 85.1141 31.934H87.5451C89.626 34.4447 90.4943 36.1998 91.5787 38.3959C92.6266 40.5863 93.8057 42.7115 95.1096 44.76C96.3147 46.6502 97.5273 48.1904 97.5783 48.2551C97.6494 48.347 97.7379 48.4239 97.8389 48.4813C97.9398 48.5388 98.0512 48.5757 98.1665 48.5898C98.2818 48.604 98.3987 48.5951 98.5106 48.5638C98.6225 48.5325 98.727 48.4793 98.8182 48.4073C98.9094 48.3354 98.9854 48.246 99.0418 48.1445C99.0982 48.043 99.134 47.9313 99.147 47.8158C99.16 47.7004 99.15 47.5835 99.1176 47.472C99.0851 47.3605 99.0309 47.2565 98.958 47.166C98.9461 47.1508 97.7471 45.6273 96.592 43.815C95.3228 41.8202 94.1749 39.7508 93.1545 37.618C92.2219 35.7287 91.3922 34.0502 89.7889 31.9344H91.0646C92.4223 33.2154 93.8195 35.1826 95.0609 36.9305Z" fill="#D41121"/>
<path d="M1.96529 29.0038C5.4763 27.2351 9.09186 25.6821 12.7919 24.3534C18.6172 22.3143 25.3256 24.4409 30.2241 25.994C31.0401 26.2528 31.8108 26.4971 32.504 26.6971C36.1577 27.7518 48.6587 29.1356 49.1891 29.194C49.2216 29.1975 49.2542 29.1993 49.2868 29.1993C49.5114 29.199 49.7275 29.1126 49.8905 28.958C50.0534 28.8034 50.151 28.5922 50.1632 28.3679C50.1753 28.1436 50.1011 27.9231 49.9558 27.7518C49.8104 27.5804 49.605 27.4713 49.3817 27.4467C49.3514 27.4434 48.6143 27.3618 47.461 27.226C49.8067 26.5608 52.5661 25.8002 53.9245 25.8784C55.2301 25.9508 56.8559 26.4368 58.428 26.9067C60.0208 27.3827 61.5253 27.8325 62.7835 27.8969C68.0651 28.168 74.0657 26.4963 76.0432 25.1789C78.1526 23.7741 83.8362 22.3551 87.6538 24.5276C92.4913 27.2815 94.6792 28.2385 96.2768 28.9379C96.9409 29.2284 97.4649 29.4579 98.0372 29.7532C98.1398 29.8061 98.2518 29.8383 98.3668 29.848C98.4819 29.8576 98.5977 29.8445 98.7077 29.8094C98.8176 29.7743 98.9196 29.7179 99.0078 29.6433C99.096 29.5688 99.1686 29.4776 99.2215 29.375C99.2745 29.2724 99.3067 29.1604 99.3163 29.0454C99.326 28.9303 99.3129 28.8145 99.2778 28.7045C99.2427 28.5946 99.1862 28.4926 99.1117 28.4044C99.0372 28.3162 98.946 28.2436 98.8434 28.1907C98.2212 27.8694 97.6467 27.618 96.9815 27.327C95.419 26.6434 93.2807 25.7073 88.5245 22.9995C83.8649 20.3471 77.3598 22.1901 75.0696 23.7153C73.3356 24.8704 67.7258 26.3911 62.8741 26.1407C61.828 26.087 60.4219 25.6668 58.9331 25.2227C57.2631 24.7235 55.5364 24.2071 54.0235 24.1235C52.2963 24.0276 49.2485 24.8924 46.5626 25.6555C44.9024 26.1268 43.1889 26.6125 42.5839 26.6198C38.9092 26.1362 34.7698 25.5219 32.994 25.0094C32.3229 24.8155 31.5626 24.5745 30.7579 24.3194C25.9141 22.7834 18.5926 20.4621 12.2135 22.6955C8.43542 24.0511 4.74353 25.636 1.15846 27.4413C1.05586 27.4942 0.964708 27.5669 0.890196 27.6551C0.815684 27.7433 0.759275 27.8453 0.72419 27.9553C0.689105 28.0653 0.676031 28.1812 0.685715 28.2962C0.695398 28.4113 0.727649 28.5233 0.780627 28.6259C0.833605 28.7285 0.906271 28.8197 0.994477 28.8942C1.08268 28.9687 1.1847 29.0251 1.29471 29.0602C1.40472 29.0953 1.52056 29.1083 1.63562 29.0987C1.75067 29.089 1.8627 29.0567 1.96529 29.0038Z" fill="#D41121"/>
</svg>
